PathFileType  4	(X/Y/Z) C:\Users\antoi\Documents\MyRepositories\mobilecap\ResultsAnalysis
DataRate	CameraRate	NumFrames	NumMarkers	Units	OrigDataRate	OrigDataStartFrame	OrigNumFrames
100.0	100.0	5	51	mm	100.0	154	306
Frame#	Time	r_knee			r_shank_antsup			r_ankle			r_calc			r_5meta			r_toe			L_knee			L_shank_antsup			L_ankle			L_calc			L_5meta			L_toe			r_sh2			r_sh3			r_sh4			L_sh2			L_sh3			r_thigh1			r_thigh2			r_thigh3			r_thigh4			r_thigh5			L_thigh1			L_thigh2			L_thigh3			L_thigh4			r.ASIS			r.PSIS			L.ASIS			L.PSIS			C7			R_Shoulder			L_Shoulder			R_Sternum			L_Sternum			R_humerus			R_elbow_med			R_elbow_lat			R_forearm			R_wrist_radius			R_wrist_ulna			L_humerus			L_elbow_med			L_elbow_lat			L_forearm			L_wrist_radius			L_wrist_ulna			R_HJC			L_HJC			R_HJC_reg			L_HJC_reg			
		X1	Y1	Z1	X2	Y2	Z2	X3	Y3	Z3	X4	Y4	Z4	X5	Y5	Z5	X6	Y6	Z6	X7	Y7	Z7	X8	Y8	Z8	X9	Y9	Z9	X10	Y10	Z10	X11	Y11	Z11	X12	Y12	Z12	X13	Y13	Z13	X14	Y14	Z14	X15	Y15	Z15	X16	Y16	Z16	X17	Y17	Z17	X18	Y18	Z18	X19	Y19	Z19	X20	Y20	Z20	X21	Y21	Z21	X22	Y22	Z22	X23	Y23	Z23	X24	Y24	Z24	X25	Y25	Z25	X26	Y26	Z26	X27	Y27	Z27	X28	Y28	Z28	X29	Y29	Z29	X30	Y30	Z30	X31	Y31	Z31	X32	Y32	Z32	X33	Y33	Z33	X34	Y34	Z34	X35	Y35	Z35	X36	Y36	Z36	X37	Y37	Z37	X38	Y38	Z38	X39	Y39	Z39	X40	Y40	Z40	X41	Y41	Z41	X42	Y42	Z42	X43	Y43	Z43	X44	Y44	Z44	X45	Y45	Z45	X46	Y46	Z46	X47	Y47	Z47	X48	Y48	Z48	X49	Y49	Z49	X50	Y50	Z50	X51	Y51	Z51	

154	1.53000000	-523.80797	795.86912	-369.56337	-491.23936	675.53238	-369.68089	-596.35886	413.06542	-384.16531	-643.40148	392.16041	-442.53088	-511.52668	322.48620	-339.59125	-464.57195	329.57481	-374.25663	-522.74572	803.34589	-767.92555	-486.01925	691.73492	-739.73066	-616.03535	427.82792	-774.82469	-659.43203	417.45116	-719.43922	-543.14144	312.06416	-803.36928	-490.30025	312.16956	-759.48974	-513.45223	564.82562	-377.23577	-554.57462	684.05283	-330.18591	-589.38336	579.38938	-348.99323	-543.06746	727.65731	-798.79017	-571.13720	611.85087	-819.82669	-517.59686	1107.00023	-392.39813	-484.49182	1003.28701	-379.36287	-523.80907	968.25662	-337.94994	-618.55872	1075.78612	-355.43025	-580.04366	968.48082	-341.26686	-531.61452	1104.57445	-754.00552	-479.79152	973.20994	-762.33596	-635.62395	1072.22029	-778.35960	-584.58570	939.12446	-782.33043	-504.12156	1234.94848	-442.36026	-667.45773	1321.40375	-508.06971	-505.55990	1240.68041	-684.59838	-673.30590	1325.97687	-622.03851	-504.12191	1753.64038	-553.93570	-445.97385	1721.86428	-405.93723	-436.64993	1721.91496	-701.01886	-398.51512	1666.25517	-534.09468	-396.53952	1664.24969	-575.57665	-510.67796	1632.46835	-323.38260	-692.56214	1527.83813	-372.91129	-680.23200	1537.07136	-298.69698	-732.78380	1429.28575	-251.45353	-785.19209	1342.59192	-229.84819	-814.17611	1366.58103	-222.54754	-494.86588	1600.47011	-790.54408	-681.45710	1510.77467	-771.52227	-651.52748	1515.26727	-841.09733	-674.10437	1423.52220	-879.89440	-743.25484	1307.36432	-895.63402	-753.90698	1326.86178	-922.94967	-607.95988	1187.95448	-467.95386	-605.36830	1187.62830	-657.31377	-587.50273	1185.56247	-473.88827	-595.69114	1191.96562	-633.47243	
155	1.54000000	-512.58727	782.22483	-369.00354	-475.01265	663.83644	-368.61393	-568.66408	396.25143	-380.87937	-615.70657	373.34032	-438.62709	-479.44834	309.77861	-336.15020	-433.31124	318.69498	-371.76793	-509.99743	790.81788	-768.78728	-468.91630	681.28087	-741.06417	-587.51233	412.04471	-776.94005	-630.11851	400.63077	-721.72540	-511.02717	297.65124	-803.92555	-458.33162	299.81779	-760.09581	-492.85303	552.19013	-375.24083	-538.59424	669.94472	-328.82303	-569.22889	563.64592	-346.94413	-526.94453	714.77061	-800.48616	-550.15291	597.55614	-821.52622	-505.49599	1092.69591	-393.10463	-473.28567	988.80167	-380.13938	-512.60468	954.11537	-338.31833	-606.50463	1062.60781	-355.72972	-568.85397	954.81560	-341.35910	-521.67599	1092.39143	-755.21865	-468.85124	961.44596	-763.45906	-625.35560	1059.47091	-778.16157	-573.60209	926.71679	-783.03774	-492.30867	1221.31168	-443.03302	-656.00066	1308.58576	-507.23969	-495.40802	1228.05163	-685.12363	-662.68726	1313.69148	-621.37828	-492.25515	1739.73491	-553.30795	-433.29474	1707.20973	-405.39714	-425.18742	1708.11347	-700.87842	-387.06148	1652.03227	-534.02137	-385.06014	1649.84355	-574.78964	-499.80450	1619.00495	-323.34679	-683.90198	1518.94735	-374.16095	-671.55837	1527.24124	-299.95951	-727.01920	1420.72359	-253.56635	-782.02317	1335.16626	-233.02176	-810.29261	1360.01464	-225.22220	-485.18796	1586.79887	-789.65839	-672.97982	1500.21476	-769.24533	-643.16365	1503.83404	-839.10396	-667.79192	1412.94651	-877.84800	-739.31379	1299.57725	-895.27611	-750.69819	1318.47439	-920.56740	-596.58388	1174.78754	-468.11768	-595.24002	1175.20918	-657.49030	-576.04052	1172.31758	-474.14216	-585.38082	1179.44995	-633.56489	
156	1.55000000	-501.40318	767.91514	-368.34725	-458.96526	650.95144	-367.84661	-542.04115	379.79747	-377.32237	-588.68066	354.03472	-435.04356	-448.47914	297.51442	-333.34796	-403.16603	308.73104	-369.18240	-497.22657	777.20951	-769.33463	-451.65804	669.98106	-742.22127	-559.24714	396.05126	-779.06136	-601.32123	383.56925	-724.24172	-479.01978	283.44845	-804.96069	-426.61061	287.54689	-760.78996	-472.59511	538.94515	-373.68279	-522.64274	655.16824	-327.53326	-549.23857	547.76099	-344.88345	-510.56817	701.09519	-802.02036	-529.22668	582.71100	-822.76450	-493.39135	1077.29672	-393.83630	-462.18189	973.20538	-380.69801	-501.31154	938.85923	-338.63818	-594.43767	1048.34906	-356.14977	-557.59357	940.00722	-341.34304	-511.51450	1079.09174	-756.31918	-457.85308	948.49909	-764.47511	-615.03248	1045.64021	-778.51359	-562.58575	913.07469	-783.63471	-480.50571	1206.60522	-443.57364	-644.68331	1294.79603	-506.32540	-485.25067	1214.23405	-685.57106	-652.02188	1300.33745	-620.66701	-480.44662	1724.87896	-552.76703	-420.81019	1691.32792	-404.95683	-413.96565	1693.25243	-700.63259	-375.52765	1636.71868	-534.25180	-373.59645	1634.22709	-573.65995	-489.01634	1604.47767	-323.44649	-675.08858	1509.05097	-375.24922	-662.91252	1516.30547	-301.36339	-721.28533	1410.93189	-255.86355	-778.58976	1326.66593	-236.20350	-806.14411	1352.31321	-228.01696	-475.81818	1572.41523	-789.01727	-664.53311	1488.54821	-766.89905	-635.00701	1491.34995	-836.91394	-661.56432	1401.32867	-875.74675	-734.98156	1290.46042	-894.84440	-747.14929	1308.96486	-918.28437	-585.29032	1160.60410	-468.15369	-585.15734	1161.67854	-657.52761	-564.76521	1158.03174	-474.35925	-574.99055	1165.75282	-633.67407	
157	1.56000000	-490.03292	752.89378	-367.55231	-443.11705	636.88066	-367.42627	-516.59186	363.03151	-374.28141	-562.12811	333.57249	-431.93503	-418.52363	286.02609	-330.91463	-374.20823	299.97687	-366.51184	-484.08802	762.98976	-770.67745	-434.31685	657.68073	-743.29207	-531.33064	379.64377	-781.20869	-573.14919	366.25906	-726.84000	-447.36686	269.16951	-806.22811	-395.25318	275.28806	-761.57586	-452.92946	524.75084	-372.57974	-506.60932	639.51657	-326.40276	-529.60687	531.30354	-342.93562	-494.07428	686.70371	-803.47476	-508.19591	567.74677	-824.20354	-481.29471	1060.91283	-394.43605	-451.00936	956.60400	-381.35358	-489.90562	922.60438	-339.01832	-582.49689	1032.76939	-356.29180	-546.17625	924.07075	-341.28527	-501.03531	1064.63447	-757.18807	-446.77979	934.36391	-765.49323	-604.57165	1030.69351	-779.39706	-551.38776	898.31883	-784.46282	-468.83767	1190.93116	-444.03756	-633.26136	1279.88049	-505.61454	-474.88359	1199.29347	-685.95112	-641.20079	1285.80785	-620.14598	-468.40867	1709.01521	-552.62639	-408.58042	1673.95438	-404.75114	-402.90206	1677.36008	-700.50345	-364.06139	1620.30990	-534.64021	-362.06408	1617.67271	-572.97668	-478.27864	1588.84430	-323.53961	-666.16711	1497.90267	-376.35402	-654.28898	1504.26121	-302.71317	-715.45527	1399.98718	-258.17512	-774.90715	1317.14979	-239.24736	-801.79619	1343.43974	-231.04776	-466.73328	1557.22115	-788.46986	-656.11866	1475.72356	-764.33883	-627.05677	1477.83673	-834.59562	-655.51385	1388.65565	-873.50682	-731.76850	1279.00319	-892.04847	-743.44905	1298.42861	-916.11406	-574.00992	1145.37683	-468.22066	-574.84825	1146.98883	-657.58999	-553.46140	1142.71425	-474.51961	-564.49806	1150.95350	-633.73258	
158	1.57000000	-478.05177	736.76724	-366.81985	-427.43971	621.89527	-367.21797	-492.08050	345.92921	-371.63461	-536.14276	312.36267	-429.19348	-389.62336	275.20735	-328.37961	-346.51410	291.77680	-363.88138	-470.57683	747.93145	-772.14529	-416.99347	644.36814	-744.22280	-503.81450	363.01224	-783.64369	-545.38282	348.62872	-729.50424	-416.25297	254.55115	-807.56335	-364.51193	262.74610	-762.82673	-434.00342	509.53840	-371.76489	-490.52771	622.98425	-325.33061	-510.56822	513.98469	-341.36219	-477.58341	671.67663	-804.64681	-487.27267	552.43220	-825.80650	-469.23043	1043.63574	-394.70507	-439.69959	939.14282	-382.54784	-478.30262	905.54293	-339.47944	-570.65704	1015.89274	-356.20831	-534.49576	907.07923	-341.01495	-490.35260	1048.95211	-757.96233	-435.53855	919.02920	-766.57201	-593.90570	1014.54437	-779.85916	-539.95175	882.39616	-785.26082	-457.40869	1174.31389	-444.38065	-621.72328	1263.56451	-505.20633	-464.39019	1183.23545	-686.23634	-630.39399	1269.82398	-619.84140	-456.22228	1692.01176	-552.78394	-396.42836	1655.20446	-404.76918	-392.05166	1660.47939	-700.57901	-352.80534	1602.87474	-534.84532	-350.57445	1600.14508	-572.30367	-467.56343	1571.97716	-323.53444	-657.09755	1485.20843	-377.76745	-645.61360	1490.96610	-304.17639	-709.45279	1387.94751	-260.45318	-770.97887	1306.54876	-242.14780	-797.28638	1333.33824	-234.16570	-457.92923	1541.18758	-788.03605	-647.70813	1461.62992	-761.55982	-619.38225	1463.33307	-832.23758	-649.68205	1374.99386	-871.25402	-728.75251	1266.28282	-888.50972	-740.22677	1287.00176	-913.36190	-562.71367	1128.96442	-468.31816	-564.26393	1130.96535	-657.67990	-541.99954	1126.27837	-474.46329	-554.03425	1134.96695	-633.57091	
